<svg width="50" height="50" viewBox="0 0 50 50" fill="none" xmlns="http://www.w3.org/2000/svg">
<path fill-rule="evenodd" clip-rule="evenodd" d="M34.1541 4.21042L34.2916 4.24792C36.5833 4.8625 38.3979 5.34792 39.825 5.86459C41.2854 6.39167 42.4771 6.99375 43.4583 7.9125C44.8864 9.2511 45.8855 10.9831 46.3291 12.8896C46.6354 14.1979 46.5625 15.5313 46.2875 17.0583C46.0229 18.5542 45.5375 20.3688 44.9229 22.6583L43.8062 26.8229C43.1937 29.1125 42.7062 30.9271 42.1916 32.3542C41.6625 33.8146 41.0604 35.0063 40.1416 35.9875C38.8468 37.3701 37.1823 38.3521 35.3458 38.8167C34.8077 40.0502 34.0237 41.1611 33.0416 42.0813C32.0604 43 30.8687 43.6021 29.4083 44.1313C27.9812 44.6479 26.1666 45.1333 23.8771 45.7479L23.7375 45.7854C21.4458 46.3979 19.6333 46.8833 18.1375 47.1521C16.6104 47.425 15.2771 47.4979 13.9666 47.1938C12.0605 46.7486 10.3291 45.748 8.99164 44.3188C8.07497 43.3396 7.47081 42.1479 6.94164 40.6875C6.42706 39.2604 5.94164 37.4458 5.32705 35.1542L4.21039 30.9917C3.59789 28.7 3.11039 26.8875 2.84372 25.3917C2.5708 23.8646 2.49789 22.5313 2.80205 21.2208C3.24725 19.3147 4.24777 17.5833 5.67705 16.2458C6.65622 15.3292 7.84789 14.725 9.30831 14.1958C10.7354 13.6813 12.55 13.1958 14.8396 12.5813L14.9104 12.5604L16.475 12.1438C17.2916 9.22917 18.0083 7.16875 19.4083 5.675C20.7461 4.24648 22.4774 3.2467 24.3833 2.80209C25.6937 2.49792 27.025 2.57084 28.5541 2.84375C30.0479 3.11042 31.8625 3.59792 34.1541 4.21042ZM15.5312 15.6313C13.2541 16.2417 11.6229 16.6833 10.3687 17.1354C9.09789 17.5938 8.35414 18.0188 7.81247 18.5271C6.83466 19.4423 6.15025 20.627 5.84581 21.9313C5.67914 22.6563 5.68122 23.5146 5.92081 24.8417C6.16039 26.1896 6.61247 27.8771 7.24789 30.2521L8.32706 34.2771C8.96247 36.6521 9.41664 38.3396 9.88122 39.625C10.3396 40.8958 10.7646 41.6417 11.2729 42.1833C12.1881 43.1611 13.3728 43.8456 14.6771 44.15C15.4 44.3167 16.2604 44.3125 17.5875 44.075C18.9354 43.8354 20.6229 43.3833 22.9979 42.7479C25.3729 42.1104 27.0604 41.6583 28.3479 41.1917C29.6166 40.7333 30.3625 40.3083 30.9041 39.8021C31.1916 39.5313 31.4521 39.2396 31.6875 38.9292C31.301 38.8739 30.9161 38.8079 30.5333 38.7313C29.1333 38.4521 27.45 38.0021 25.3771 37.4458L25.2562 37.4146C22.9666 36.8 21.1521 36.3146 19.725 35.7979C18.2646 35.2708 17.0729 34.6688 16.0916 33.75C14.6628 32.4117 13.663 30.6796 13.2187 28.7729C12.9146 27.4646 12.9875 26.1313 13.2604 24.6021C13.5271 23.1083 14.0146 21.2938 14.6271 19.0042L15.5312 15.6313ZM28.0041 5.92084C26.675 5.68125 25.8166 5.67709 25.0937 5.84584C23.7895 6.15028 22.6048 6.83469 21.6896 7.8125C20.7812 8.78125 20.2208 10.2813 19.25 13.8396C19.0916 14.4188 18.925 15.0417 18.7437 15.7188L17.6646 19.7438C17.0291 22.1188 16.5771 23.8063 16.3375 25.1542C16.0979 26.4813 16.0937 27.3417 16.2625 28.0646C16.5669 29.3688 17.2513 30.5535 18.2291 31.4687C18.7708 31.9771 19.5166 32.4 20.7854 32.8604C22.0729 33.325 23.7604 33.7771 26.1354 34.4146C28.2708 34.9875 29.8541 35.4104 31.1416 35.6646C32.4229 35.9208 33.2937 35.9833 34.0062 35.8958C34.1625 35.875 34.3104 35.85 34.4562 35.8167C35.7605 35.5122 36.9452 34.8278 37.8604 33.85C38.3687 33.3083 38.7937 32.5625 39.2521 31.2938C39.7166 30.0063 40.1687 28.3188 40.8062 25.9438L41.8854 21.9188C42.5208 19.5438 42.9729 17.8563 43.2125 16.5083C43.45 15.1813 43.4562 14.3208 43.2875 13.5979C42.983 12.2937 42.2986 11.109 41.3208 10.1938C40.7791 9.68542 40.0333 9.2625 38.7646 8.80208C37.475 8.3375 35.7896 7.88542 33.4146 7.24792C31.0396 6.6125 29.3521 6.16042 28.0041 5.92084ZM23.025 20.4292C23.0781 20.2309 23.1699 20.0451 23.2949 19.8823C23.4199 19.7195 23.5757 19.583 23.7535 19.4804C23.9313 19.3779 24.1276 19.3114 24.3311 19.2847C24.5346 19.2581 24.7413 19.2717 24.9396 19.325L35.0021 22.0208C35.3912 22.1379 35.7195 22.4019 35.9172 22.7569C36.115 23.112 36.1666 23.5301 36.0611 23.9225C35.9557 24.315 35.7015 24.651 35.3525 24.8591C35.0035 25.0673 34.5871 25.1313 34.1916 25.0375L24.1291 22.3417C23.7292 22.2343 23.3883 21.9725 23.1813 21.6139C22.9743 21.2553 22.918 20.8292 23.025 20.4292ZM21.4062 26.4667C21.4594 26.2682 21.5512 26.0822 21.6763 25.9192C21.8015 25.7563 21.9575 25.6196 22.1355 25.5171C22.3136 25.4145 22.5101 25.3481 22.7138 25.3215C22.9176 25.295 23.1245 25.3089 23.3229 25.3625L29.3583 26.9792C29.7586 27.0864 30.1 27.3482 30.3072 27.707C30.5145 28.0659 30.5707 28.4924 30.4635 28.8927C30.3563 29.293 30.0945 29.6344 29.7356 29.8416C29.3768 30.0489 28.9503 30.1051 28.55 29.9979L22.5125 28.3792C22.1126 28.2718 21.7717 28.01 21.5646 27.6514C21.3576 27.2928 21.3014 26.8667 21.4083 26.4667H21.4062Z" fill="#4338CA"/>
</svg>
